<svg xmlns="http://www.w3.org/2000/svg" width="1200" height="630" viewBox="0 0 1200 630" role="img" aria-labelledby="title">
<title id="title">Ranaise — Intelligence across your business</title>
<rect width="1200" height="630" fill="#F9F8FD"/>
<defs><pattern id="grid" width="64" height="64" patternUnits="userSpaceOnUse"><path d="M64 0H0V64" fill="none" stroke="#EDE9F7" stroke-width="1"/></pattern></defs>
<rect width="1200" height="630" fill="url(#grid)"/>
<rect x="76" y="68" width="55" height="55" rx="15" fill="#5141C6"/>
<path d="M91 107V84h12c9 0 15 5 15 12s-5 11-15 11h-2m-1-13 17 18" fill="none" stroke="#fff" stroke-width="4.4" stroke-linecap="round" stroke-linejoin="round"/>
<g font-family="Arial,Helvetica,sans-serif" fill="#211E32"><text x="146" y="111" font-size="40" font-weight="700">Ranaise</text>
<text x="77" y="271" font-size="63" font-weight="800" letter-spacing="-2">Intelligence across</text><text x="77" y="351" font-size="64" font-weight="800" letter-spacing="-2" fill="#5141C6">your business.</text>
<text x="78" y="457" font-size="24" fill="#645D78">AI intelligence workspace for modern teams.</text>
<text x="78" y="497" font-size="23" fill="#645D78">Specialist insights. Human-reviewed decisions.</text>
<text x="78" y="594" font-size="19" fill="#5141C6">ranaise.site</text></g>
<g transform="translate(827 67)">
<rect width="336" height="487" rx="36" fill="#EAE6FA"/>
<rect x="35" y="38" width="265" height="412" rx="34" fill="#F7F5FD"/>
<rect x="49" y="85" width="239" height="298" rx="26" fill="#fff" stroke="#CDBFF5" stroke-width="1.5"/>
<rect x="67" y="106" width="204" height="54" rx="13" fill="#F5F3FC"/>
<text x="87" y="137" font-size="13" fill="#6355A6" font-family="Arial">RANAISE / INTELLIGENCE</text>
<text x="75" y="207" font-size="19" fill="#332B4F" font-weight="700" font-family="Arial">Business context</text>
<g transform="translate(86 219)">
<rect x="0" y="36" width="22" height="52" rx="6" fill="#B8A5F1"/><rect x="34" y="17" width="22" height="71" rx="6" fill="#9881E7"/>
<rect x="68" y="45" width="22" height="43" rx="6" fill="#B9A8ED"/><rect x="102" y="0" width="22" height="88" rx="6" fill="#7460D9"/>
<rect x="136" y="24" width="22" height="64" rx="6" fill="#A18BEA"/><rect x="170" y="-9" width="22" height="97" rx="6" fill="#5141C6"/>
</g><path d="M75 337H262" stroke="#D5CEF3" stroke-width="2"/><text x="76" y="367" font-size="13" fill="#6355A6" font-family="Arial">GUIDED ANALYSIS</text>
</g></g>
<text x="1040" y="593" font-size="18" fill="#6355A6" font-family="Arial">EARLY BETA</text>
</svg>